<svg xmlns="http://www.w3.org/2000/svg" width="2048" height="1024" viewBox="0 0 1024 512"><image href="panorama.png" width="1024" height="512"/><g font-size="8" font-family="sans-serif" fill="white" stroke="black" stroke-width="0.5" paint-order="stroke"><circle cx="518.0" cy="212.0" r="2" fill="white"/><text x="521.0" y="209.0">0</text><circle cx="518.0" cy="311.0" r="2" fill="white"/><text x="521.0" y="308.0">1</text><circle cx="555.0" cy="79.0" r="2" fill="white"/><text x="558.0" y="76.0">2</text><circle cx="555.0" cy="448.0" r="2" fill="white"/><text x="558.0" y="445.0">3</text><circle cx="725.0" cy="179.0" r="2" fill="white"/><text x="728.0" y="176.0">4</text><circle cx="725.0" cy="350.0" r="2" fill="white"/><text x="728.0" y="347.0">5</text><circle cx="828.0" cy="181.0" r="2" fill="white"/><text x="831.0" y="178.0">6</text><circle cx="828.0" cy="348.0" r="2" fill="white"/><text x="831.0" y="345.0">7</text><circle cx="202.0" cy="188.0" r="2" fill="white"/><text x="205.0" y="185.0">8</text><circle cx="202.0" cy="340.0" r="2" fill="white"/><text x="205.0" y="337.0">9</text><circle cx="292.0" cy="187.0" r="2" fill="white"/><text x="295.0" y="184.0">10</text><circle cx="292.0" cy="342.0" r="2" fill="white"/><text x="295.0" y="339.0">11</text><circle cx="282.0" cy="203.0" r="2" fill="white"/><text x="285.0" y="200.0">12</text><circle cx="282.0" cy="322.0" r="2" fill="white"/><text x="285.0" y="319.0">13</text><circle cx="400.0" cy="221.0" r="2" fill="white"/><text x="403.0" y="218.0">14</text><circle cx="400.0" cy="300.0" r="2" fill="white"/><text x="403.0" y="297.0">15</text></g></svg>