<svg xmlns="http://www.w3.org/2000/svg" width="2048" height="1024" viewBox="0 0 1024 512"><image href="panorama.png" width="1024" height="512"/><g font-size="8" font-family="sans-serif" fill="white" stroke="black" stroke-width="0.5" paint-order="stroke"><circle cx="503.09" cy="142.19" r="2" fill="white"/><text x="506.09" y="139.19">0</text><circle cx="503.09" cy="384.59" r="2" fill="white"/><text x="506.09" y="381.59">1</text><circle cx="489.41" cy="71.77" r="2" fill="white"/><text x="492.41" y="68.77">2</text><circle cx="489.41" cy="451.01" r="2" fill="white"/><text x="492.41" y="448.01">3</text><circle cx="722.07" cy="168.43" r="2" fill="white"/><text x="725.07" y="165.43">4</text><circle cx="722.07" cy="357.16" r="2" fill="white"/><text x="725.07" y="354.16">5</text><circle cx="821.48" cy="169.47" r="2" fill="white"/><text x="824.48" y="166.47">6</text><circle cx="821.48" cy="356.04" r="2" fill="white"/><text x="824.48" y="353.04">7</text><circle cx="14.62" cy="82.08" r="2" fill="white"/><text x="17.619999999999997" y="79.08">8</text><circle cx="14.62" cy="441.84" r="2" fill="white"/><text x="17.619999999999997" y="438.84">9</text><circle cx="1.02" cy="235.43" r="2" fill="white"/><text x="4.02" y="232.43">10</text><circle cx="1.02" cy="280.62" r="2" fill="white"/><text x="4.02" y="277.62">11</text><circle cx="22.53" cy="235.63" r="2" fill="white"/><text x="25.53" y="232.63">12</text><circle cx="22.53" cy="280.39" r="2" fill="white"/><text x="25.53" y="277.39">13</text><circle cx="390.62" cy="165.77" r="2" fill="white"/><text x="393.62" y="162.77">14</text><circle cx="390.62" cy="360.01" r="2" fill="white"/><text x="393.62" y="357.01">15</text></g></svg>