<svg xmlns="http://www.w3.org/2000/svg" width="2048" height="1024" viewBox="0 0 1024 512"><image href="panorama.png" width="1024" height="512"/><g font-size="8" font-family="sans-serif" fill="white" stroke="black" stroke-width="0.5" paint-order="stroke"><circle cx="617.0" cy="84.0" r="2" fill="white"/><text x="620.0" y="81.0">0</text><circle cx="617.0" cy="430.0" r="2" fill="white"/><text x="620.0" y="427.0">1</text><circle cx="743.0" cy="54.0" r="2" fill="white"/><text x="746.0" y="51.0">2</text><circle cx="743.0" cy="459.0" r="2" fill="white"/><text x="746.0" y="456.0">3</text><circle cx="732.0" cy="37.0" r="2" fill="white"/><text x="735.0" y="34.0">4</text><circle cx="732.0" cy="475.0" r="2" fill="white"/><text x="735.0" y="472.0">5</text><circle cx="980.0" cy="116.0" r="2" fill="white"/><text x="983.0" y="113.0">6</text><circle cx="980.0" cy="398.0" r="2" fill="white"/><text x="983.0" y="395.0">7</text><circle cx="73.0" cy="122.0" r="2" fill="white"/><text x="76.0" y="119.0">8</text><circle cx="73.0" cy="392.0" r="2" fill="white"/><text x="76.0" y="389.0">9</text><circle cx="392.0" cy="89.0" r="2" fill="white"/><text x="395.0" y="86.0">10</text><circle cx="392.0" cy="425.0" r="2" fill="white"/><text x="395.0" y="422.0">11</text></g></svg>